<svg width="149" height="48" viewBox="0 0 149 48" fill="none" xmlns="http://www.w3.org/2000/svg">
<mask id="mask0_1_469" style="mask-type:alpha" maskUnits="userSpaceOnUse" x="37" y="0" width="11" height="32">
<path d="M37.9199 0H47.779V31.7419H37.9199V0Z" fill="white"/>
</mask>
<g mask="url(#mask0_1_469)">
<path fill-rule="evenodd" clip-rule="evenodd" d="M43.6126 0V23.5056C43.6126 26.6976 44.8091 27.3443 47.5728 26.8697L47.779 31.3983C41.6325 32.563 37.9199 30.9673 37.9199 23.5056V0H43.6126Z" fill="#272626"/>
</g>
<mask id="mask1_1_469" style="mask-type:alpha" maskUnits="userSpaceOnUse" x="50" y="0" width="11" height="32">
<path d="M50.8125 0H60.6716V31.7419H50.8125V0Z" fill="white"/>
</mask>
<g mask="url(#mask1_1_469)">
<path fill-rule="evenodd" clip-rule="evenodd" d="M56.5052 0V23.5056C56.5052 26.6976 57.7016 27.3443 60.4654 26.8697L60.6716 31.3983C54.5251 32.563 50.8125 30.9673 50.8125 23.5056V0H56.5052Z" fill="#272626"/>
</g>
<path fill-rule="evenodd" clip-rule="evenodd" d="M105.916 19.0466H114.835C115.126 16.3258 113.342 14.4687 110.604 14.4687C107.7 14.4687 106.413 16.5414 105.916 19.0466ZM119.441 22.8033H105.916C106.289 26.2145 109.069 26.7332 111.226 26.9489C113.715 27.0782 116.246 26.6897 118.652 25.6535L119.316 29.9285C116.951 31.0945 114.213 31.7419 111.558 31.7419C104.671 31.7419 100.108 27.6827 100.108 20.6442C100.108 13.6056 105.459 10.0645 110.604 10.0645C117.905 10.0645 120.976 15.7213 119.441 22.8033Z" fill="#272626"/>
<mask id="mask2_1_469" style="mask-type:alpha" maskUnits="userSpaceOnUse" x="125" y="0" width="10" height="32">
<path d="M125.135 0H134.994V31.7419H125.135V0Z" fill="white"/>
</mask>
<g mask="url(#mask2_1_469)">
<path fill-rule="evenodd" clip-rule="evenodd" d="M130.827 0V23.5056C130.827 26.6976 132.024 27.3443 134.788 26.8697L134.994 31.3983C128.847 32.563 125.135 30.9673 125.135 23.5056V0H130.827Z" fill="#272626"/>
</g>
<mask id="mask3_1_469" style="mask-type:alpha" maskUnits="userSpaceOnUse" x="138" y="0" width="11" height="32">
<path d="M138.786 0H148.645V31.7419H138.786V0Z" fill="white"/>
</mask>
<g mask="url(#mask3_1_469)">
<path fill-rule="evenodd" clip-rule="evenodd" d="M144.479 0V23.5056C144.479 26.6976 145.675 27.3443 148.439 26.8697L148.645 31.3983C142.499 32.563 138.786 30.9673 138.786 23.5056V0H144.479Z" fill="#272626"/>
</g>
<path fill-rule="evenodd" clip-rule="evenodd" d="M92.0307 10.8388L89.9884 16.8663L88.4239 21.5683H88.2938L83.5578 11.3091H81.255L76.5628 21.5683H76.4758L74.8683 16.8663L72.652 10.8388H72.0476C72.0504 10.8456 72.0532 10.8527 72.0559 10.8595H72.0593C73.3627 13.9449 74.0861 17.3251 74.0861 20.8693C74.0861 23.2829 73.7452 25.6183 73.1205 27.839L74.7814 31.742H77.4751L79.8647 26.8687L82.3845 21.2691L84.9919 26.6975L87.5987 31.742H89.9013L98.5914 11.5228V10.8388H92.0307Z" fill="#272626"/>
<path fill-rule="evenodd" clip-rule="evenodd" d="M15.9503 11.6129L15.9263 11.662L20.4766 20.9032L15.9503 11.6129Z" fill="#272626"/>
<path fill-rule="evenodd" clip-rule="evenodd" d="M15.1893 11.7687L11.051 21.9011H19.3283L15.1893 11.7687ZM16.6825 1.5484L17.3397 1.54841L30.3356 31.3549C32.6108 36.3871 41.0474 41.9406 48.0581 41.9406C59.529 41.9406 68.8606 32.5099 68.8606 20.9174C68.8606 19.3714 68.6831 17.869 68.3652 16.4188L68.3507 16.384L68.347 16.3679C67.9513 14.5762 67.3362 12.867 66.5211 11.2766L66.5158 11.2659L66.3593 10.8387H72.0472L72.6436 10.8368C73.9258 13.9624 74.3224 17.8355 74.3224 21.4244C74.3224 23.8724 73.9859 26.2411 73.3696 28.4936L73.38 28.5187C70.3079 39.7372 60.1232 48 48.0581 48C37.5387 48 27.7039 41.1735 23.51 32.1291L23.4518 31.9284L21.3763 27.4279H8.96001L6.65646 32.5161H0V31.6388L13.7385 1.5484H16.6825Z" fill="url(#paint0_linear_1_469)"/>
<defs>
<linearGradient id="paint0_linear_1_469" x1="14.8645" y1="30.0387" x2="46.7612" y2="30.0387" gradientUnits="userSpaceOnUse">
<stop stop-color="#006EFF"/>
<stop offset="1" stop-color="#2ED477"/>
</linearGradient>
</defs>
</svg>
